<?xml version="1.0" encoding="UTF-8" standalone="no"?>
<!-- Created with Inkscape (http://www.inkscape.org/) -->

<svg
   xmlns:dc="http://purl.org/dc/elements/1.1/"
   xmlns:cc="http://creativecommons.org/ns#"
   xmlns:rdf="http://www.w3.org/1999/02/22-rdf-syntax-ns#"
   xmlns:svg="http://www.w3.org/2000/svg"
   xmlns="http://www.w3.org/2000/svg"
   xmlns:xlink="http://www.w3.org/1999/xlink"
   xmlns:sodipodi="http://sodipodi.sourceforge.net/DTD/sodipodi-0.dtd"
   xmlns:inkscape="http://www.inkscape.org/namespaces/inkscape"
   width="600"
   height="400"
   viewBox="0 0 158.75 105.83333"
   version="1.1"
   id="svg11551"
   sodipodi:docname="sketch1.svg"
   inkscape:version="0.92.3 (2405546, 2018-03-11)">
  <defs
     id="defs11545" />
  <sodipodi:namedview
     id="base"
     pagecolor="#ffffff"
     bordercolor="#666666"
     borderopacity="1.0"
     inkscape:pageopacity="0.0"
     inkscape:pageshadow="2"
     inkscape:zoom="8.2714844"
     inkscape:cx="459.38708"
     inkscape:cy="364.26279"
     inkscape:document-units="mm"
     inkscape:current-layer="layer1"
     showgrid="false"
     units="px"
     inkscape:window-width="1853"
     inkscape:window-height="1025"
     inkscape:window-x="67"
     inkscape:window-y="27"
     inkscape:window-maximized="1" />
  <metadata
     id="metadata11548">
    <rdf:RDF>
      <cc:Work
         rdf:about="">
        <dc:format>image/svg+xml</dc:format>
        <dc:type
           rdf:resource="http://purl.org/dc/dcmitype/StillImage" />
        <dc:title></dc:title>
      </cc:Work>
    </rdf:RDF>
  </metadata>
  <g
     inkscape:label="Layer 1"
     inkscape:groupmode="layer"
     id="layer1"
     transform="translate(0,-191.16667)">
    <rect
       style="opacity:1;fill:#96afaf;fill-opacity:1;stroke:none;stroke-width:0.32047045;stroke-linecap:round;stroke-linejoin:miter;stroke-miterlimit:4;stroke-dasharray:none;stroke-dashoffset:0;stroke-opacity:1"
       id="rect12098"
       width="158.90984"
       height="105.67351"
       x="0"
       y="191.16667" />
    <path
       style="fill:#ff96e1;fill-opacity:1;fill-rule:evenodd;stroke:none;stroke-width:0.30410147px;stroke-linecap:butt;stroke-linejoin:miter;stroke-opacity:1"
       d="m 17.730331,272.63321 -1.452559,-1.0446 c 0,0 -0.124163,-3.51031 1.597817,-4.01344 6.609405,-1.93108 5.850171,-0.45833 7.989073,0.7697 7.253927,4.16474 7.517102,0.2321 10.313169,1.86926 7.503521,4.39353 4.757114,0.38799 6.827029,1.20952 5.153279,2.0453 7.843819,1.31948 7.843819,1.31948 l 9.732143,3.18876 3.656897,3.75961 -8.759007,0.0476 -21.268219,-3.76549 z"
       id="path12104"
       inkscape:connector-curvature="0"
       sodipodi:nodetypes="ccsssscccccc" />
    <path
       style="fill:#666666;fill-opacity:1;fill-rule:evenodd;stroke:none;stroke-width:0.22015208;stroke-linecap:butt;stroke-linejoin:miter;stroke-miterlimit:4;stroke-dasharray:none;stroke-opacity:1"
       d="m 0.09136113,266.65685 c 0.3581605,0.037 0.7244193,-0.0278 1.08331597,0 0.3118692,0.0241 0.6166874,0.0837 0.9285566,0.10782 0.9974155,0.0772 -0.066932,-0.21702 1.5475942,0.21569 0.3229865,0.0866 0.5901854,0.273 0.9285566,0.32352 0.403531,0.0603 0.8270784,-0.026 1.2380752,0 0.162461,0.0103 0.3068958,0.0779 0.4642784,0.10783 0.4104038,0.078 0.8314936,0.12851 1.2380753,0.21567 0.531034,0.11386 1.0254423,0.29906 1.5475932,0.43135 0.306619,0.0777 0.623069,0.13586 0.928557,0.21568 0.2160144,0.0564 0.4126924,0.14378 0.6190394,0.21566 0.412692,0.14379 0.818029,0.29833 1.238074,0.43136 0.357657,0.11328 0.726606,0.2088 1.083317,0.32352 0.314202,0.10105 0.619037,0.21566 0.928557,0.32352 0.309518,0.10784 0.624757,0.20805 0.928555,0.32352 0.26407,0.10036 0.504755,0.22978 0.773798,0.32352 0.248474,0.0866 0.520896,0.13557 0.773797,0.21566 0.63007,0.19957 1.238075,0.43136 1.857113,0.64703 0.412692,0.14377 0.825384,0.28756 1.238075,0.43135 0.103174,0.0359 0.202418,0.078 0.309519,0.10784 0.151463,0.0422 0.318371,0.057 0.464279,0.10784 0.166362,0.058 0.291583,0.16753 0.464277,0.21566 0.09579,0.0267 0.210317,-0.0198 0.30952,0 0.267113,0.0532 0.510251,0.15447 0.773796,0.21569 0.201781,0.0469 0.411789,0.0745 0.619038,0.10783 0.463425,0.0745 0.923052,0.16398 1.392836,0.21566 0.512093,0.0564 1.039223,0.037 1.547595,0.10784 0.272406,0.0379 0.501388,0.17771 0.773796,0.21569 0.508368,0.0709 1.038036,0.0413 1.547594,0.10783 1.90482,0.24887 0.0042,0.26763 1.702354,0.75487 0.548104,0.15727 2.385874,0.37443 3.095188,0.53918 0.37271,0.0866 0.70641,0.24627 1.083317,0.32352 2.749426,0.56348 0.340737,-0.0937 3.095187,0.32352 0.685637,0.10384 1.343604,0.28234 2.011874,0.43134 0.932216,0.20788 1.846656,0.45458 2.785669,0.64703 4.882458,1.00064 0.06836,0.0992 2.321389,0.32352 0.161492,0.0162 0.30952,0.0719 0.46428,0.10784 0.309519,0.0719 0.612036,0.16054 0.928557,0.21567 0.304417,0.0531 0.624138,0.0548 0.928556,0.10783 0.111907,0.0195 0.206345,0.0719 0.309519,0.10784 0.103174,0.0359 0.213541,0.0632 0.309518,0.10785 0.0607,0.0282 0.08951,0.0851 0.154762,0.10783 0.09228,0.0322 0.208349,-0.0141 0.309517,0 0.208565,0.0291 0.409773,0.0813 0.619039,0.10783 0.358885,0.0455 0.725626,0.058 1.083314,0.10785 0.159963,0.0223 0.304316,0.0856 0.46428,0.10785 0.101169,0.0142 0.208008,-0.0128 0.309519,0 0.467931,0.0593 0.925375,0.1546 1.392833,0.21566 0.736509,0.0962 1.054435,0.0652 1.702354,0.21569 0.109433,0.0254 0.200089,0.0824 0.309519,0.10783 0.361105,0.0719 0.722211,0.14379 1.083317,0.21566 0.154757,0 0.313202,-0.0234 0.464277,0 1.270922,0.19681 0.533796,0.23304 1.702355,0.32353 0.358896,0.0278 0.724999,-0.0312 1.083314,0 0.26101,0.0227 0.511837,0.0912 0.773798,0.10782 0.48978,0.031 1.044322,0 1.547594,0 h 3.249949 1.083313 c 0.103175,0 0.25229,0.0598 0.30952,0 0.08584,-0.0897 0,-0.21566 0,-0.3235 0,-0.0359 -0.03647,-0.0824 0,-0.10786 0.131523,-0.0916 0.311904,-0.14133 0.46428,-0.21566 0.363547,-0.17732 0.686401,-0.40091 1.083316,-0.53918 0.138419,-0.0483 0.315473,0.0296 0.464277,0 0.581428,0.25244 0.488436,-0.25726 0.773799,-0.32352 0.09788,-0.0227 0.210315,0.0198 0.309518,0 0.267111,-0.0532 0.515864,-0.14377 0.773796,-0.21568 0.309519,-0.0359 0.624138,-0.0548 0.928557,-0.10784 0.316519,-0.0551 0.60609,-0.1811 0.928556,-0.21567 0.356909,-0.0383 0.722211,0 1.083316,0 h 1.547595 c 0.151511,0 0.941519,0.0198 1.083316,0 0.11311,-0.0157 0.195737,-0.0946 0.30952,-0.10785 0.203538,-0.0236 0.41269,0 0.619037,0 h 0.619038 c 0.154758,0 0.312523,0.0212 0.464276,0 0.113112,-0.0158 0.195328,-0.0965 0.30952,-0.10784 0.25534,-0.0254 0.515866,0 0.773798,0 h 0.464276 2.321392 0.773799 c 0.257932,0 0.5291,-0.0568 0.773796,0 0.547156,0.12711 1.031729,0.35946 1.547593,0.53918 2.180611,0.75975 -0.513541,-0.20448 2.166635,0.8627 0.300456,0.11966 0.619037,0.2157 0.928557,0.32353 0.10317,0.0359 0.200085,0.0824 0.309517,0.10782 0.04894,0.0114 0.10862,-0.0162 0.154759,0 0.06526,0.0227 0.08951,0.0851 0.15476,0.10785 0.04614,0.0162 0.106863,0.0134 0.154758,0 0.47173,-0.13149 0.903062,-0.33721 1.392836,-0.43136 1.014275,-0.19497 2.050671,-0.34313 3.095189,-0.43134 0.66575,-0.0562 1.34183,0.0194 2.011873,0 0.569296,-0.0165 1.133439,-0.0858 1.702352,-0.10785 0.360549,-0.0139 0.722211,0 1.083316,0 h 2.321391 5.571335 2.16664 c 0.25793,0 0.51937,0.0295 0.7738,0 0.42699,-0.0496 0.68062,-0.21127 1.08331,-0.32351 0.30293,-0.0845 0.61672,-0.14883 0.92855,-0.21569 0.6719,-0.14405 1.30873,-0.28267 2.01187,-0.32352 0.30847,-0.018 0.61905,0 0.92857,0 h 1.08332 c 0.10316,0 0.23655,0.0508 0.30951,0 0.0729,-0.0508 -0.0272,-0.14631 0,-0.21566 0.12877,-0.329 0.19964,-0.68371 0.46428,-0.97055 0.21787,-0.23615 0.62098,-0.35784 0.92856,-0.5392 2.70163,-1.59289 -1.10847,0.58879 3.55946,-1.94106 0.57875,-0.31366 1.1121,-0.66748 1.70237,-0.97055 0.39179,-0.20117 0.82359,-0.36146 1.23807,-0.53919 0.25617,-0.10985 0.50475,-0.22978 0.77379,-0.32352 0.14592,-0.0508 0.31203,-0.0671 0.46428,-0.10783 1.90429,-0.51036 1.53679,-0.53327 3.86898,-0.75488 0.3578,-0.034 0.72222,0 1.08332,0 h 0.92856 4.48801 1.39285 c 0.0516,0 0.13845,0.0341 0.15476,0 0.0407,-0.0851 -0.0433,-0.59681 0,-0.64702 0.66508,-0.77241 1.11892,-0.82474 2.16662,-1.29407 0.31293,-0.14016 0.59271,-0.31989 0.92856,-0.43135 0.75245,-0.24966 1.5521,-0.42366 2.3214,-0.64702 0.46898,-0.13616 0.9211,-0.29986 1.39283,-0.43135 0.30293,-0.0844 0.62739,-0.12824 0.92855,-0.21567 2.33537,-0.81366 -0.30127,0.034 1.70235,-0.43135 0.0692,-0.0161 0.10318,-0.0719 0.15477,-0.10784 0.10318,-0.0359 0.1964,-0.0921 0.30952,-0.10784 0.15174,-0.0211 0.31253,0.0211 0.46428,0 0.11311,-0.0157 0.20635,-0.0719 0.30952,-0.10784 0.20634,-0.0719 0.40017,-0.16484 0.61903,-0.21566 0.049,-0.0114 0.10862,0.0161 0.15475,0 0.0653,-0.0227 0.10318,-0.0719 0.15478,-0.10784 0.20634,-0.14378 0.41268,-0.28757 0.61903,-0.43136 0.0516,-0.0359 0.0895,-0.0851 0.15476,-0.10783 0.0923,-0.0322 0.21724,0.0322 0.30951,0 0.0653,-0.0227 0.0941,-0.0796 0.15477,-0.10784 0.25451,-0.11823 0.64983,-0.1914 0.92855,-0.21567 0.20475,-0.0178 0.4127,0 0.61905,0 h 1.39283 0.92855 c 0.10317,0 0.21724,-0.0322 0.30952,0 0.0461,0.0161 -0.049,0.0965 0,0.10783 0.19575,0.0455 0.4127,0 0.61905,0 h 1.70234 5.29205 V 297 H 0 Z"
       id="path12100"
       inkscape:connector-curvature="0"
       sodipodi:nodetypes="cccccccccccccccccccscccccccccccccccccccccccccccccccccccscscscccccccccssccssccsccsccccccccccccsccsccccssccccccccccsccsccccccccccccccccccccscsccsccccc" />
    <circle
       style="opacity:1;fill:#ff96e1;fill-opacity:1;stroke:none;stroke-width:0.26499999;stroke-linecap:round;stroke-linejoin:miter;stroke-miterlimit:4;stroke-dasharray:none;stroke-dashoffset:0;stroke-opacity:1"
       id="path12106-3"
       cx="30.16744"
       cy="343.02869"
       r="1.3995204" />
    <circle
       style="opacity:1;fill:#ff96e1;fill-opacity:1;stroke:none;stroke-width:0.26499999;stroke-linecap:round;stroke-linejoin:miter;stroke-miterlimit:4;stroke-dasharray:none;stroke-dashoffset:0;stroke-opacity:1"
       id="path12106-6"
       cx="36.698536"
       cy="334.63156"
       r="1.3995204" />
    <circle
       style="opacity:1;fill:#ff96e1;fill-opacity:1;stroke:none;stroke-width:0.2068835;stroke-linecap:round;stroke-linejoin:miter;stroke-miterlimit:4;stroke-dasharray:none;stroke-dashoffset:0;stroke-opacity:1"
       id="path12106-7"
       cx="28.606649"
       cy="211.52519"
       r="1.0925951" />
    <circle
       style="opacity:1;fill:#ff96e1;fill-opacity:1;stroke:none;stroke-width:0.26499999;stroke-linecap:round;stroke-linejoin:miter;stroke-miterlimit:4;stroke-dasharray:none;stroke-dashoffset:0;stroke-opacity:1"
       id="path12106-3-3"
       cx="25.891127"
       cy="359.2009"
       r="1.3995204" />
    <circle
       style="opacity:1;fill:#ff96e1;fill-opacity:1;stroke:none;stroke-width:0.26499999;stroke-linecap:round;stroke-linejoin:miter;stroke-miterlimit:4;stroke-dasharray:none;stroke-dashoffset:0;stroke-opacity:1"
       id="path12106-6-5"
       cx="32.422222"
       cy="350.80377"
       r="1.3995204" />
    <circle
       style="opacity:1;fill:#ff96e1;fill-opacity:1;stroke:none;stroke-width:0.26499999;stroke-linecap:round;stroke-linejoin:miter;stroke-miterlimit:4;stroke-dasharray:none;stroke-dashoffset:0;stroke-opacity:1"
       id="path12106-7-6"
       cx="29.001173"
       cy="329.34445"
       r="1.3995204" />
    <use
       id="use12159"
       inkscape:spray-origin="#path12106-7-6"
       xlink:href="#path12106-7-6"
       x="0"
       y="0"
       width="100%"
       height="100%"
       transform="matrix(0.7806925,0,0,0.7806925,18.345954,-44.724652)" />
    <use
       id="use12163"
       inkscape:spray-origin="#path12106-6"
       xlink:href="#path12106-6"
       x="0"
       y="0"
       width="100%"
       height="100%"
       transform="matrix(0.7806925,0,0,0.7806925,13.790259,-45.051801)" />
    <use
       id="use12193"
       inkscape:spray-origin="#path12106-7-6"
       xlink:href="#path12106-7-6"
       x="0"
       y="0"
       width="100%"
       height="100%"
       transform="matrix(0.7806925,0,0,0.7806925,34.233181,-42.512669)" />
    <use
       id="use12195"
       inkscape:spray-origin="#path12106-3-3"
       xlink:href="#path12106-3-3"
       x="0"
       y="0"
       width="100%"
       height="100%"
       transform="matrix(0.7806925,0,0,0.7806925,31.170808,-67.28195)" />
    <use
       id="use12197"
       inkscape:spray-origin="#path12106-7"
       xlink:href="#path12106-7"
       x="0"
       y="0"
       width="100%"
       height="100%"
       transform="translate(28.570494,8.916937)" />
    <use
       id="use12199"
       inkscape:spray-origin="#path12106-3-3"
       xlink:href="#path12106-3-3"
       x="0"
       y="0"
       width="100%"
       height="100%"
       transform="translate(18.387424,-86.171534)" />
    <use
       id="use12201"
       inkscape:spray-origin="#path12106-7"
       xlink:href="#path12106-7"
       x="0"
       y="0"
       width="100%"
       height="100%"
       transform="translate(22.03201,3.6296262)" />
    <use
       id="use12203"
       inkscape:spray-origin="#path12106-6"
       xlink:href="#path12106-6"
       x="0"
       y="0"
       width="100%"
       height="100%"
       transform="matrix(0.7806925,0,0,0.7806925,18.184874,-49.9763)" />
    <use
       id="use12205"
       inkscape:spray-origin="#path12106-7-6"
       xlink:href="#path12106-7-6"
       x="0"
       y="0"
       width="100%"
       height="100%"
       transform="matrix(0.7806925,0,0,0.7806925,10.816132,-42.788644)" />
    <use
       id="use12207"
       inkscape:spray-origin="#path12106-6-5"
       xlink:href="#path12106-6-5"
       x="0"
       y="0"
       width="100%"
       height="100%"
       transform="matrix(0.7806925,0,0,0.7806925,10.32491,-55.930751)" />
    <use
       id="use12209"
       inkscape:spray-origin="#path12106-7"
       xlink:href="#path12106-7"
       x="0"
       y="0"
       width="100%"
       height="100%"
       transform="translate(-11.722673,-1.9726232)" />
    <use
       id="use12211"
       inkscape:spray-origin="#path12106-6"
       xlink:href="#path12106-6"
       x="0"
       y="0"
       width="100%"
       height="100%"
       transform="matrix(0.7806925,0,0,0.7806925,-5.8445647,-47.802766)" />
    <use
       id="use12213"
       inkscape:spray-origin="#path12106-3"
       xlink:href="#path12106-3"
       x="0"
       y="0"
       width="100%"
       height="100%"
       transform="matrix(0.7806925,0,0,0.7806925,11.887452,-60.829596)" />
    <path
       style="fill:#e6e6e6;fill-opacity:1;fill-rule:evenodd;stroke:none;stroke-width:0.26458332px;stroke-linecap:butt;stroke-linejoin:miter;stroke-opacity:1"
       d="m 0,207.63849 14.854332,-4.39827 c 0,0 12.614106,-1.83497 18.912555,-1.31948 4.430243,0.36259 8.588919,2.35645 12.974891,3.07879 6.974136,1.14859 21.111686,1.97922 21.111686,1.97922 l 14.07446,-0.21991 c 0,0 17.758847,-3.69412 26.609526,-2.63896 5.70576,0.68023 16.27359,5.68648 16.27359,5.68648 0,0 6.61114,3.0098 10.11602,2.89014 8.41235,-0.2872 23.75065,-8.57662 23.75065,-8.57662 l 6e-5,-12.9852 L 0,191.16667 Z"
       id="path12217"
       inkscape:connector-curvature="0"
       sodipodi:nodetypes="ccssccscscccc" />
    <path
       style="fill:none;fill-rule:evenodd;stroke:#000000;stroke-width:0.26458332px;stroke-linecap:butt;stroke-linejoin:miter;stroke-opacity:1"
       d="m 0.43982684,245.54026 c 2.56565646,0 5.13131306,0 7.69696966,0 2.1991345,0 4.3982685,0 6.5974025,0 0.879654,0 1.759307,0 2.638961,0 0.05226,0 0.830364,0.0246 0.879654,0 0.09272,-0.0464 0.127189,-0.17355 0.219913,-0.21991 0.06556,-0.0328 0.154348,0.0328 0.219914,0 0.09272,-0.0464 0.133656,-0.16241 0.219913,-0.21991 0.136385,-0.0909 0.308696,-0.12157 0.439827,-0.21992 0.165869,-0.1244 0.324817,-0.26731 0.439827,-0.43982 0.04066,-0.061 -0.06099,-0.17926 0,-0.21992 0.192876,-0.12858 0.452403,-0.11624 0.65974,-0.21991 0.09272,-0.0464 0.136979,-0.15771 0.219913,-0.21992 0.211443,-0.15858 0.47285,-0.25293 0.659741,-0.43982 0.05183,-0.0518 -0.05184,-0.16808 0,-0.21991 0.115904,-0.11591 0.299271,-0.13558 0.439826,-0.21992 0.226638,-0.13598 0.430261,-0.3087 0.659741,-0.43983 0.284634,-0.16264 0.598543,-0.27116 0.879653,-0.43982 0.08889,-0.0533 0.133657,-0.16241 0.219914,-0.21992 0.136384,-0.0909 0.299271,-0.13558 0.439827,-0.21991 0.226637,-0.13598 0.42334,-0.32163 0.65974,-0.43983 0.06556,-0.0328 0.146609,0 0.219913,0 0.146609,-0.0733 0.303443,-0.12899 0.439827,-0.21991 0.08626,-0.0575 0.121565,-0.18713 0.219913,-0.21991 0.139086,-0.0464 0.308696,0.0656 0.439827,0 0.185447,-0.0927 0.273958,-0.31543 0.439827,-0.43983 0.396724,-0.29754 0.858756,-0.28625 1.31948,-0.43983 0.155503,-0.0518 0.28222,-0.17488 0.439827,-0.21991 0.3594,-0.10269 0.744969,-0.10171 1.099566,-0.21991 0.09835,-0.0328 0.121566,-0.18713 0.219914,-0.21992 0.139086,-0.0464 0.293219,0 0.439827,0 0.219914,0 0.446395,0.0533 0.659742,0 0.100573,-0.0251 0.121565,-0.18713 0.219913,-0.21991 0.139084,-0.0464 0.293217,0 0.439825,0 0.07331,0 0.15435,0.0328 0.219914,0 0.09272,-0.0464 0.12719,-0.17355 0.219914,-0.21991 0.06557,-0.0328 0.154347,0.0328 0.219913,0 0.185447,-0.0927 0.254381,-0.34711 0.439828,-0.43983 0.06556,-0.0328 0.154347,0.0328 0.219914,0 0.09272,-0.0464 0.127187,-0.17355 0.219913,-0.21991 0.06556,-0.0328 0.168079,0.0518 0.219911,0 0.05183,-0.0518 -0.05183,-0.16808 0,-0.21992 0.06028,-0.0603 0.944933,0.0515 1.099569,0 1.592924,-0.53097 -0.346718,0.0634 0.659741,-0.43982 0.06556,-0.0328 0.154347,0.0328 0.219911,0 1.006459,-0.50323 -0.933183,0.0911 0.659741,-0.43983 0.06954,-0.0232 0.146609,0 0.219914,0 0.293217,0 0.59213,0.0575 0.879652,0 0.227309,-0.0455 0.431086,-0.18181 0.659742,-0.21991 0.216921,-0.0362 0.439827,0 0.659741,0 0.733044,0 1.466088,0 2.199134,0 0.659739,0 1.31948,0 1.979221,0 0.146609,0 0.298858,-0.0403 0.439825,0 1.670878,0.47739 0.572455,0.27296 1.539396,0.65974 0.215228,0.0861 0.432433,0.17445 0.659739,0.21991 0.143761,0.0288 0.305072,-0.0577 0.439827,0 0.392875,0.16837 0.717256,0.46859 1.099566,0.65974 0.207338,0.10367 0.44269,0.13852 0.659741,0.21991 1.708687,0.49252 0.556755,0.26669 1.539394,0.65974 1.027999,0.4112 0.371435,-0.008 1.539393,0.65974 0.450437,-0.0454 0.58878,0.46583 0.879655,0.65974 0.27277,0.18185 0.606885,0.25799 0.879652,0.43983 0.08626,0.0575 0.127191,0.17355 0.219914,0.21991 0.06557,0.0328 0.168079,-0.0518 0.219914,0 0.05183,0.0518 -0.05184,0.16808 0,0.21992 0.05183,0.0518 0.154347,-0.0328 0.219914,0 0.185446,0.0927 0.24313,0.37426 0.439827,0.43982 0.14551,0.0485 1.241383,0 1.539393,0 0.179777,0 1.427935,0.0372 1.539394,0 0.09835,-0.0328 0.146608,-0.1466 0.219914,-0.21991 0.146608,-0.14661 0.293219,-0.29322 0.439827,-0.43983 0.429234,-0.42923 0.86958,-0.94456 1.31948,-1.31948 0.125923,-0.10493 0.293219,-0.14661 0.439827,-0.21991 0.293217,-0.14661 0.606886,-0.25798 0.879652,-0.43983 0.172517,-0.11501 0.273961,-0.31542 0.439828,-0.43982 0.131133,-0.0984 0.303443,-0.12899 0.439827,-0.21992 0.08626,-0.0575 0.13698,-0.15771 0.219914,-0.21991 0.211442,-0.15858 0.47285,-0.25294 0.659741,-0.43983 0.186889,-0.18689 0.281244,-0.4483 0.439825,-0.65974 0.390959,-0.52127 0.293219,0.0977 0.879655,-0.87965 0.07543,-0.12572 -0.08132,-0.31784 0,-0.43983 0.09092,-0.13638 0.323921,-0.10401 0.439827,-0.21991 0.115904,-0.11591 0.121563,-0.3087 0.219912,-0.43983 0.124401,-0.16587 0.315425,-0.27396 0.439827,-0.43983 0.09835,-0.13113 0.128992,-0.30344 0.219914,-0.43982 0.618537,-0.92781 -0.37741,1.19465 0.659741,-0.87965 0.03278,-0.0656 -0.03278,-0.15435 0,-0.21992 1.037151,-2.0743 0.0412,0.0482 0.659738,-0.87965 0.09092,-0.13639 0.09399,-0.33489 0.219914,-0.43983 0.328367,-0.27364 0.733047,-0.43983 1.099569,-0.65974 0.733044,-0.43983 1.471075,-0.87144 2.199134,-1.31948 0.943748,-0.58077 0.894766,-0.72659 2.199132,-1.31948 0.275151,-0.12507 0.592924,-0.12434 0.879655,-0.21992 0.727168,-0.24238 0.2213,-0.28334 1.099566,-0.65973 1.267312,-0.85506 0.50064,-0.0702 1.099569,-0.21992 0.51313,-0.14661 1.026263,-0.29322 1.539393,-0.43983 0.146609,0 0.296064,0.0288 0.439828,0 0.227306,-0.0455 0.429347,-0.19431 0.659738,-0.21991 0.437137,-0.0486 0.879655,0 1.319483,0 0.586435,0 1.172871,0 1.759307,0 0.293216,0 0.586436,0 0.879652,0 0.07331,0 0.168079,-0.0518 0.219914,0 0.186891,0.18689 0.281244,0.4483 0.439827,0.65974 0.0622,0.0829 0.153546,0.14028 0.219914,0.21992 0.300487,0.36058 0.574186,0.74318 0.879652,1.09956 0.134932,0.15742 0.33696,0.25981 0.439828,0.43983 0.195855,0.34274 0.263287,0.74648 0.439827,1.09957 0.04636,0.0927 0.173551,0.12719 0.219914,0.21991 0.17654,0.35308 0.284324,0.73673 0.439825,1.09957 0.329872,0.76969 0.219913,0.21991 0.659741,1.31948 0.02723,0.0681 -0.0091,0.14717 0,0.21991 0.06429,0.51434 0.0942,1.03653 0.219914,1.53939 0.09574,0.38298 0.301217,0.72995 0.439827,1.09957 0.08139,0.21705 0.146608,0.43983 0.219914,0.65974 0.146608,0.43983 0.327382,0.86971 0.439825,1.31948 0.108145,0.43258 0.164607,0.87703 0.219913,1.31948 0.03637,0.29096 -0.08055,0.59772 0,0.87966 0.10845,0.37956 0.33138,0.72 0.439828,1.09956 0.04028,0.14097 -0.04636,0.30075 0,0.43983 0.03278,0.0984 0.157713,0.13698 0.219913,0.21991 0.700355,0.93381 0.205071,0.58419 1.31948,1.5394 0.200673,0.17201 0.4483,0.28124 0.659741,0.43982 0.751004,0.56326 1.477963,1.15834 2.199135,1.75931 0.07964,0.0664 0.136977,0.15771 0.219914,0.21992 0.211441,0.15858 0.448296,0.28124 0.659738,0.43982 0.08294,0.0622 0.133657,0.16241 0.219914,0.21992 0.546174,0.36411 0.679384,0.11978 1.31948,0.43982 0.87286,0.43643 -0.971945,0.0695 0.879655,0.43983 0.143761,0.0288 0.293216,0 0.439827,0 0.586436,0 1.172872,0 1.759307,0 0.439828,0 0.879652,0 1.31948,0 0.09904,0 0.592812,0.0335 0.659741,0 0.09272,-0.0464 0.146608,-0.14661 0.219914,-0.21991 0.146608,-0.14661 0.324816,-0.26732 0.439825,-0.43983 0.04066,-0.061 -0.02318,-0.15037 0,-0.21991 0.05183,-0.15551 0.146611,-0.29322 0.219913,-0.43983 0.146611,-0.29322 0.31069,-0.57833 0.439828,-0.87965 0.422732,-0.98638 -0.04463,-0.38033 0.659742,-1.31949 0.1866,-0.2488 0.43982,-0.43982 0.65974,-0.65973 0.0733,-0.0733 0.14661,-0.14662 0.21991,-0.21992 0.0733,-0.0733 0.12719,-0.17355 0.21991,-0.21991 1.61636,-0.53879 0.11201,0.0719 0.87966,-0.43983 -0.0251,-0.41661 0.51313,-0.14661 0.65974,-0.21991 0.0927,-0.0464 0.12719,-0.17355 0.21991,-0.21992 0.0656,-0.0328 0.16808,0.0518 0.21992,0 0.0518,-0.0518 -0.0328,-0.15434 0,-0.21991 0.0464,-0.0927 0.1466,-0.14661 0.21991,-0.21991 0.0733,-0.0733 0.12719,-0.17355 0.21991,-0.21992 0.0656,-0.0328 0.16808,0.0518 0.21992,0 0.0518,-0.0518 -0.0232,-0.15037 0,-0.21991 0.0518,-0.1555 0.12156,-0.3087 0.21991,-0.43983 0.1244,-0.16587 0.3471,-0.25437 0.43983,-0.43982 0.0656,-0.13113 0,-0.29322 0,-0.43983 0,-0.21991 0,-0.43983 0,-0.65974 0,-0.36652 -0.10069,-0.74715 0,-1.09957 0.057,-0.19936 0.28054,-0.30709 0.43982,-0.43982 0.28157,-0.23465 0.59345,-0.43078 0.87966,-0.65974 0.1619,-0.12953 0.27396,-0.31543 0.43982,-0.43983 0.21145,-0.15858 0.4483,-0.28125 0.65974,-0.43983 0.43983,-0.32987 0,-0.21991 0.65975,-0.65974 0.061,-0.0407 0.14879,0.0178 0.21991,0 0.22489,-0.0562 0.44451,-0.13382 0.65974,-0.21991 0.95238,-0.38096 -0.12735,-0.20172 1.53939,-0.43983 0.29027,-0.0415 0.58644,0 0.87966,0 0.51313,0 1.02626,0 1.53939,0 0.31511,0 1.37498,-0.0705 1.53939,0 0.45612,0.19548 0.53214,0.61902 0.87966,0.87966 0.21144,0.15858 0.47285,0.25293 0.65974,0.43982 0.51834,0.51834 0.80114,1.24097 1.31948,1.75931 0.1159,0.1159 0.29321,0.14661 0.43983,0.21991 0.29321,0.29322 0.61418,0.5611 0.87965,0.87966 0.10493,0.12592 0.10401,0.32392 0.21991,0.43982 1.72186,1.72186 0.50713,0.41139 1.5394,1.09957 0.30496,0.20331 0.59344,0.43078 0.87965,0.65974 0.081,0.0648 0.13102,0.16658 0.21991,0.21991 0.28111,0.16867 0.58644,0.29322 0.87966,0.43983 0.1466,0.0733 0.28763,0.15904 0.43982,0.21991 0.21523,0.0861 0.45241,0.11625 0.65974,0.21992 0.0927,0.0464 0.11935,0.19477 0.21992,0.21991 0.21335,0.0533 0.44639,-0.0533 0.65974,0 0.10057,0.0251 0.13102,0.16658 0.21991,0.21991 0.28111,0.16867 0.57833,0.31069 0.87965,0.43983 0.72949,0.31264 0.69157,0.21992 1.5394,0.21992 0.14661,0 0.29606,-0.0288 0.43982,0 0.22731,0.0455 0.43027,0.18712 0.65975,0.21991 0.29027,0.0415 0.58643,0 0.87965,0 0.36652,0 0.73304,0 1.09957,0 0.29322,0 0.58643,0 0.87965,0 0.14661,0 0.2976,0.0356 0.43983,0 0.21365,-0.0534 0.52561,-0.23864 0.65974,-0.43983 0.0909,-0.13638 0.0888,-0.34148 0.21991,-0.43983 0.18545,-0.13908 0.44451,-0.13382 0.65974,-0.21991 0.30438,-0.12175 0.57527,-0.31807 0.87965,-0.43983 0.21523,-0.0861 0.43486,-0.16369 0.65975,-0.21991 0.0711,-0.0178 0.15434,0.0328 0.21991,0 0.18545,-0.0927 0.25438,-0.3471 0.43982,-0.43983 0.0656,-0.0328 0.14661,0 0.21992,0 0.0733,0 0.14661,0 0.21991,0 0.43983,0 0.87966,0 1.31948,0 0.65974,0 1.31948,0 1.97922,0 0.21992,0 0.4441,-0.0431 0.65974,0 0.22731,0.0455 0.46687,0.0913 0.65974,0.21992 0.061,0.0407 -0.0407,0.15892 0,0.21991 0.11501,0.17252 0.29322,0.29322 0.43983,0.43983 0.0733,0.0733 0.17355,0.12719 0.21991,0.21991 0.0328,0.0656 -0.0328,0.15435 0,0.21991 0.0464,0.0927 0.14661,0.14661 0.21992,0.21992 0.0733,0.0733 0.1466,0.14661 0.21991,0.21991 0.0733,0.0733 0.17355,0.12719 0.21991,0.21992 0.0328,0.0656 -0.0656,0.18712 0,0.21991 0.13113,0.0656 0.30075,-0.0464 0.43983,0 0.0984,0.0328 0.12719,0.17355 0.21992,0.21991 0.0656,0.0328 0.15434,-0.0328 0.21991,0 0.0927,0.0464 0.12719,0.17355 0.21991,0.21991 0.13113,0.0656 0.33616,-0.10366 0.43983,0 0.0518,0.0518 -0.0518,0.16808 0,0.21992 0.34499,0.34499 1.31465,0.21991 1.7593,0.21991 0.14447,0 0.82795,0.0259 0.87966,0 0.0656,-0.0328 0,-0.14661 0,-0.21991 0,-0.29322 0,-0.58644 0,-0.87965 0,-0.0733 0,-0.14662 0,-0.21992 0,-0.0733 -0.0328,-0.15435 0,-0.21991 0.0469,-0.0939 1.01899,-1.03913 1.09957,-1.09957 0.13113,-0.0983 0.30344,-0.12899 0.43982,-0.21991 0.25877,-0.17252 0.42082,-0.46064 0.65974,-0.65974 0.28157,-0.23465 0.60137,-0.42121 0.87966,-0.65974 0.23613,-0.2024 0.41688,-0.46546 0.65974,-0.65974 0.12799,-0.1024 0.29927,-0.13558 0.43982,-0.21992 0.22664,-0.13598 0.4483,-0.28124 0.65974,-0.43982 0.0829,-0.0622 0.12719,-0.17355 0.21992,-0.21992 1.063,-0.5315 0.26085,-0.0522 1.09956,-0.21991 1.8516,-0.37032 0.007,-0.003 0.87966,-0.43983 0.0493,-0.0246 0.82739,0 0.87965,0 0.51313,0 1.02626,0 1.5394,0 0.36652,0 0.73304,0 1.09956,0 0.14661,0 0.29322,0 0.43983,0 0.0733,0 0.16808,-0.0518 0.21991,0 0.0518,0.0518 -0.0518,0.16808 0,0.21992 0.0518,0.0518 0.14661,0 0.21992,0 0.0733,0 0.14661,0 0.21991,0 0.80635,0 1.6127,0 2.41905,0"
       id="path12240"
       inkscape:connector-curvature="0" />
    <path
       style="fill:none;fill-rule:evenodd;stroke:#000000;stroke-width:0.26458332px;stroke-linecap:butt;stroke-linejoin:miter;stroke-opacity:1"
       d="m 104.75296,203.82271 c -0.12064,0.0302 -0.24127,0.0603 -0.3619,0.0905 z"
       id="path836"
       inkscape:connector-curvature="0" />
  </g>
</svg>
